<svg width="54" height="29" viewBox="0 0 54 29" fill="none" xmlns="http://www.w3.org/2000/svg">
<path d="M5.90787 11.6032C5.90787 12.1482 5.75862 12.6809 5.479 13.1341C5.19938 13.5872 4.80195 13.9404 4.33695 14.149C3.87196 14.3575 3.36029 14.4121 2.86666 14.3058C2.37302 14.1995 1.91959 13.937 1.5637 13.5516C1.20781 13.1663 0.965448 12.6753 0.867258 12.1408C0.769068 11.6062 0.819459 11.0522 1.01207 10.5487C1.20467 10.0452 1.53085 9.61483 1.94933 9.31205C2.36781 9.00927 2.85981 8.84766 3.36311 8.84766C4.03802 8.84766 4.6853 9.13797 5.16253 9.65473C5.63976 10.1715 5.90787 10.8724 5.90787 11.6032Z" fill="#6978FF"/>
<path d="M15.3026 14.3587C16.708 14.3587 17.8473 13.125 17.8473 11.6032C17.8473 10.0813 16.708 8.84766 15.3026 8.84766C13.8971 8.84766 12.7578 10.0813 12.7578 11.6032C12.7578 13.125 13.8971 14.3587 15.3026 14.3587Z" fill="#6978FF"/>
<path d="M27.2479 14.3587C28.6533 14.3587 29.7926 13.125 29.7926 11.6032C29.7926 10.0813 28.6533 8.84766 27.2479 8.84766C25.8425 8.84766 24.7031 10.0813 24.7031 11.6032C24.7031 13.125 25.8425 14.3587 27.2479 14.3587Z" fill="#6978FF"/>
<path d="M39.1952 14.3587C40.6006 14.3587 41.7399 13.125 41.7399 11.6032C41.7399 10.0813 40.6006 8.84766 39.1952 8.84766C37.7897 8.84766 36.6504 10.0813 36.6504 11.6032C36.6504 13.125 37.7897 14.3587 39.1952 14.3587Z" fill="#6978FF"/>
<path d="M53.6793 11.6032C53.6793 12.1482 53.53 12.6809 53.2504 13.1341C52.9708 13.5872 52.5734 13.9404 52.1084 14.149C51.6434 14.3575 51.1317 14.4121 50.6381 14.3058C50.1444 14.1995 49.691 13.937 49.3351 13.5516C48.9792 13.1663 48.7369 12.6753 48.6387 12.1408C48.5405 11.6062 48.5909 11.0522 48.7835 10.5487C48.9761 10.0452 49.3023 9.61483 49.7207 9.31205C50.1392 9.00927 50.6312 8.84766 51.1345 8.84766C51.8094 8.84766 52.4567 9.13797 52.9339 9.65473C53.4112 10.1715 53.6793 10.8724 53.6793 11.6032Z" fill="#6978FF"/>
<path d="M5.90787 25.3981C5.90787 25.9431 5.75862 26.4759 5.479 26.929C5.19938 27.3822 4.80195 27.7353 4.33695 27.9439C3.87196 28.1525 3.36029 28.207 2.86666 28.1007C2.37302 27.9944 1.91959 27.7319 1.5637 27.3466C1.20781 26.9612 0.965448 26.4702 0.867258 25.9357C0.769068 25.4012 0.819459 24.8471 1.01207 24.3436C1.20467 23.8401 1.53085 23.4098 1.94933 23.107C2.36781 22.8042 2.85981 22.6426 3.36311 22.6426C4.03802 22.6426 4.6853 22.9329 5.16253 23.4497C5.63976 23.9664 5.90787 24.6673 5.90787 25.3981Z" fill="#6978FF"/>
<path d="M17.8473 25.3981C17.8473 25.9431 17.6981 26.4759 17.4185 26.929C17.1388 27.3822 16.7414 27.7353 16.2764 27.9439C15.8114 28.1525 15.2997 28.207 14.8061 28.1007C14.3125 27.9944 13.859 27.7319 13.5032 27.3466C13.1473 26.9612 12.9049 26.4702 12.8067 25.9357C12.7085 25.4012 12.7589 24.8471 12.9515 24.3436C13.1441 23.8401 13.4703 23.4098 13.8888 23.107C14.3073 22.8042 14.7993 22.6426 15.3026 22.6426C15.9775 22.6426 16.6247 22.9329 17.102 23.4497C17.5792 23.9664 17.8473 24.6673 17.8473 25.3981Z" fill="#6978FF"/>
<path d="M29.7926 25.3979C29.7911 25.9425 29.6405 26.4744 29.3599 26.9264C29.0793 27.3785 28.6813 27.7303 28.2162 27.9376C27.7511 28.1448 27.2397 28.1982 26.7466 28.0909C26.2535 27.9836 25.8008 27.7204 25.4457 27.3347C25.0906 26.949 24.849 26.458 24.7514 25.9237C24.6539 25.3895 24.7047 24.8359 24.8976 24.3329C25.0904 23.8298 25.4166 23.4 25.8349 23.0976C26.2532 22.7952 26.7449 22.6338 27.2479 22.6338C27.5827 22.6338 27.9143 22.7053 28.2235 22.8444C28.5328 22.9834 28.8137 23.1871 29.0501 23.4439C29.2865 23.7007 29.4738 24.0055 29.6012 24.3408C29.7286 24.6761 29.7937 25.0353 29.7926 25.3979Z" fill="#6978FF"/>
<path d="M41.7321 25.3981C41.7321 25.9435 41.5826 26.4766 41.3027 26.9299C41.0227 27.3832 40.6248 27.7364 40.1593 27.9447C39.6939 28.153 39.1818 28.2071 38.688 28.1001C38.1941 27.993 37.7407 27.7298 37.3851 27.3435C37.0295 26.9573 36.7878 26.4655 36.6905 25.9304C36.5932 25.3953 36.6448 24.841 36.8386 24.3377C37.0324 23.8343 37.3598 23.4046 37.7793 23.1028C38.1988 22.8011 38.6916 22.6409 39.1953 22.6426C39.8688 22.6449 40.514 22.9362 40.9895 23.4527C41.4651 23.9692 41.7321 24.6688 41.7321 25.3981Z" fill="#6978FF"/>
<path d="M53.6793 25.3981C53.6793 25.9431 53.53 26.4759 53.2504 26.929C52.9708 27.3822 52.5734 27.7353 52.1084 27.9439C51.6434 28.1525 51.1317 28.207 50.6381 28.1007C50.1444 27.9944 49.691 27.7319 49.3351 27.3466C48.9792 26.9612 48.7369 26.4702 48.6387 25.9357C48.5405 25.4012 48.5909 24.8471 48.7835 24.3436C48.9761 23.8401 49.3023 23.4098 49.7207 23.107C50.1392 22.8042 50.6312 22.6426 51.1345 22.6426C51.8094 22.6426 52.4567 22.9329 52.9339 23.4497C53.4112 23.9664 53.6793 24.6673 53.6793 25.3981Z" fill="#6978FF"/>
<path d="M5.90787 -0.774736C5.90787 -0.229743 5.75862 0.303016 5.479 0.756161C5.19938 1.20931 4.80195 1.56248 4.33695 1.77104C3.87196 1.9796 3.36029 2.03417 2.86666 1.92785C2.37302 1.82152 1.91959 1.55908 1.5637 1.17371C1.20781 0.788346 0.965448 0.297359 0.867258 -0.237161C0.769068 -0.771682 0.819459 -1.32572 1.01207 -1.82923C1.20467 -2.33274 1.53085 -2.7631 1.94933 -3.06588C2.36781 -3.36866 2.85981 -3.53027 3.36311 -3.53027C4.03802 -3.53027 4.6853 -3.23996 5.16253 -2.7232C5.63976 -2.20644 5.90787 -1.50555 5.90787 -0.774736Z" fill="#6978FF"/>
<path d="M17.8473 -0.774736C17.8473 -0.229743 17.6981 0.303016 17.4185 0.756161C17.1388 1.20931 16.7414 1.56248 16.2764 1.77104C15.8114 1.9796 15.2997 2.03417 14.8061 1.92785C14.3125 1.82152 13.859 1.55908 13.5032 1.17371C13.1473 0.788346 12.9049 0.297359 12.8067 -0.237161C12.7085 -0.771682 12.7589 -1.32572 12.9515 -1.82923C13.1441 -2.33274 13.4703 -2.7631 13.8888 -3.06588C14.3073 -3.36866 14.7993 -3.53027 15.3026 -3.53027C15.9775 -3.53027 16.6247 -3.23996 17.102 -2.7232C17.5792 -2.20644 17.8473 -1.50555 17.8473 -0.774736Z" fill="#6978FF"/>
<path d="M29.7926 -0.774945C29.7911 -0.230321 29.6405 0.301579 29.3599 0.753593C29.0793 1.20561 28.6813 1.55746 28.2162 1.7647C27.7511 1.97195 27.2397 2.0253 26.7466 1.91801C26.2535 1.81072 25.8008 1.54759 25.4457 1.16189C25.0906 0.776178 24.849 0.285178 24.7514 -0.249107C24.6539 -0.783392 24.7047 -1.33699 24.8976 -1.83999C25.0904 -2.343 25.4166 -2.77285 25.8349 -3.07526C26.2532 -3.37766 26.7449 -3.53906 27.2479 -3.53906C27.5827 -3.53906 27.9143 -3.46751 28.2235 -3.32849C28.5328 -3.18948 28.8137 -2.98573 29.0501 -2.72895C29.2865 -2.47216 29.4738 -2.16739 29.6012 -1.83208C29.7286 -1.49678 29.7937 -1.13753 29.7926 -0.774945Z" fill="#6978FF"/>
<path d="M41.7321 -0.774722C41.7321 -0.229365 41.5826 0.303723 41.3027 0.757052C41.0227 1.21038 40.6248 1.56356 40.1593 1.77187C39.6939 1.98017 39.1818 2.03424 38.688 1.92722C38.1941 1.8202 37.7407 1.5569 37.3851 1.17068C37.0295 0.784448 36.7878 0.292658 36.6905 -0.242427C36.5932 -0.777512 36.6448 -1.33183 36.8386 -1.83519C37.0324 -2.33854 37.3598 -2.7683 37.7793 -3.07005C38.1988 -3.37179 38.6916 -3.53196 39.1953 -3.53026C39.8688 -3.52799 40.514 -3.23666 40.9895 -2.72015C41.4651 -2.20363 41.7321 -1.50405 41.7321 -0.774722Z" fill="#6978FF"/>
<path d="M53.6793 -0.774736C53.6793 -0.229743 53.5301 0.303016 53.2505 0.756161C52.9709 1.20931 52.5734 1.56248 52.1084 1.77104C51.6434 1.9796 51.1318 2.03417 50.6381 1.92785C50.1445 1.82152 49.6911 1.55908 49.3352 1.17371C48.9793 0.788346 48.7369 0.297359 48.6387 -0.237161C48.5406 -0.771682 48.5909 -1.32572 48.7835 -1.82923C48.9761 -2.33274 49.3023 -2.7631 49.7208 -3.06588C50.1393 -3.36866 50.6313 -3.53027 51.1346 -3.53027C51.8095 -3.53027 52.4568 -3.23996 52.934 -2.7232C53.4112 -2.20644 53.6793 -1.50555 53.6793 -0.774736Z" fill="#6978FF"/>
</svg>
