<svg width="20" height="14" viewBox="0 0 20 14" fill="none" xmlns="http://www.w3.org/2000/svg">
<path d="M8.57305 14C8.57305 14 9.86744 13.8922 10.2319 13.0712C10.6087 12.2217 9.89555 11.8744 9.89555 11.8744C9.89555 11.8744 10.9304 11.905 11.3132 10.8684C11.6744 9.89143 10.7952 9.4431 10.7952 9.4431C10.7952 9.4431 11.8069 9.28398 12.1021 8.25516C12.3502 7.38908 11.4711 6.74379 11.4711 6.74379H18.0717C18.5903 6.74379 19.464 6.46287 19.4645 5.42576C19.4656 4.38916 18.5675 4.15229 18.0717 4.15229H6.98777C6.44709 4.15229 6.44709 3.63399 6.98777 3.63399H8.42922C10.4795 3.63399 11.7506 2.5777 12.1015 2.20815C12.453 1.8386 12.6309 1.34414 12.4984 0.746541C12.274 -0.267255 11.4603 -0.0459404 10.7698 0.241198C9.10562 0.934166 6.73419 1.40945 5.61281 1.55405C2.4455 1.96403 0.00324531 4.56486 1.22292e-06 7.71353C-0.0021615 11.1478 2.86453 13.9974 6.44709 14H8.57305Z" fill="#FFC85D"/>
</svg>
