<svg width="33" height="39" viewBox="0 0 33 39" fill="none" xmlns="http://www.w3.org/2000/svg">
<path d="M6.42953 31.8382C7.83495 31.8382 8.97428 30.6275 8.97428 29.134C8.97428 27.6406 7.83495 26.4299 6.42953 26.4299C5.0241 26.4299 3.88477 27.6406 3.88477 29.134C3.88477 30.6275 5.0241 31.8382 6.42953 31.8382Z" fill="#D3D8FF"/>
<path d="M18.3768 31.8382C19.7822 31.8382 20.9216 30.6275 20.9216 29.134C20.9216 27.6406 19.7822 26.4299 18.3768 26.4299C16.9714 26.4299 15.832 27.6406 15.832 29.134C15.832 30.6275 16.9714 31.8382 18.3768 31.8382Z" fill="#D3D8FF"/>
<path d="M32.8609 29.134C32.8609 29.6689 32.7117 30.1917 32.4321 30.6364C32.1524 31.0811 31.755 31.4277 31.29 31.6323C30.825 31.837 30.3133 31.8906 29.8197 31.7862C29.3261 31.6819 28.8727 31.4243 28.5168 31.0462C28.1609 30.668 27.9185 30.1862 27.8203 29.6616C27.7221 29.1371 27.7725 28.5933 27.9651 28.0992C28.1577 27.6051 28.4839 27.1828 28.9024 26.8857C29.3209 26.5885 29.8129 26.4299 30.3162 26.4299C30.9911 26.4299 31.6384 26.7148 32.1156 27.2219C32.5928 27.7291 32.8609 28.4169 32.8609 29.134Z" fill="#D3D8FF"/>
<path d="M6.42953 6.15336C7.83495 6.15336 8.97428 4.94268 8.97428 3.44923C8.97428 1.95579 7.83495 0.745117 6.42953 0.745117C5.0241 0.745117 3.88477 1.95579 3.88477 3.44923C3.88477 4.94268 5.0241 6.15336 6.42953 6.15336Z" fill="#D3D8FF"/>
<path d="M18.3768 6.15336C19.7822 6.15336 20.9216 4.94268 20.9216 3.44923C20.9216 1.95579 19.7822 0.745117 18.3768 0.745117C16.9714 0.745117 15.832 1.95579 15.832 3.44923C15.832 4.94268 16.9714 6.15336 18.3768 6.15336Z" fill="#D3D8FF"/>
<path d="M32.8609 3.44923C32.8609 3.98406 32.7117 4.50688 32.4321 4.95157C32.1524 5.39626 31.755 5.74285 31.29 5.94752C30.825 6.15218 30.3133 6.20574 29.8197 6.1014C29.3261 5.99707 28.8727 5.73952 28.5168 5.36134C28.1609 4.98316 27.9185 4.50134 27.8203 3.97679C27.7221 3.45224 27.7725 2.90853 27.9651 2.41441C28.1577 1.9203 28.4839 1.49798 28.9024 1.20085C29.3209 0.903713 29.8129 0.745117 30.3162 0.745117C30.9911 0.745117 31.6384 1.03001 32.1156 1.53713C32.5928 2.04426 32.8609 2.73205 32.8609 3.44923Z" fill="#D3D8FF"/>
<path d="M8.97427 16.987C8.9727 17.5214 8.82212 18.0434 8.54155 18.487C8.26098 18.9306 7.86299 19.2759 7.39786 19.4792C6.93273 19.6826 6.42132 19.735 5.92821 19.6297C5.43509 19.5244 4.98241 19.2662 4.62731 18.8877C4.27221 18.5091 4.03064 18.0273 3.93309 17.503C3.83554 16.9787 3.88639 16.4354 4.07923 15.9418C4.27206 15.4482 4.59824 15.0263 5.01655 14.7296C5.43486 14.4328 5.92654 14.2744 6.42951 14.2744C6.76436 14.2744 7.09592 14.3446 7.40518 14.4811C7.71444 14.6175 7.99533 14.8174 8.23174 15.0694C8.46814 15.3214 8.65542 15.6205 8.78284 15.9495C8.91026 16.2786 8.97531 16.6311 8.97427 16.987Z" fill="#D3D8FF"/>
<path d="M20.9137 16.9864C20.9137 17.5216 20.7643 18.0447 20.4843 18.4896C20.2043 18.9344 19.8064 19.281 19.341 19.4854C18.8755 19.6899 18.3635 19.7429 17.8696 19.6379C17.3758 19.5329 16.9223 19.2745 16.5668 18.8955C16.2112 18.5164 15.9694 18.0338 15.8722 17.5087C15.7749 16.9836 15.8264 16.4397 16.0202 15.9457C16.214 15.4517 16.5414 15.03 16.961 14.7339C17.3805 14.4378 17.8733 14.2806 18.3769 14.2822C19.0504 14.2845 19.6957 14.5704 20.1712 15.0772C20.6467 15.5841 20.9137 16.2706 20.9137 16.9864Z" fill="#D3D8FF"/>
<path d="M32.8609 16.9866C32.8609 17.5214 32.7117 18.0442 32.4321 18.4889C32.1524 18.9336 31.755 19.2802 31.29 19.4849C30.825 19.6896 30.3133 19.7431 29.8197 19.6388C29.3261 19.5344 28.8727 19.2769 28.5168 18.8987C28.1609 18.5205 27.9185 18.0387 27.8203 17.5141C27.7221 16.9896 27.7725 16.4459 27.9651 15.9518C28.1577 15.4577 28.4839 15.0353 28.9024 14.7382C29.3209 14.4411 29.8129 14.2825 30.3162 14.2825C30.9911 14.2825 31.6384 14.5674 32.1156 15.0745C32.5928 15.5816 32.8609 16.2694 32.8609 16.9866Z" fill="#D3D8FF"/>
</svg>
