<svg class="css-a1vwta" fill="none" xmlns="http://www.w3.org/2000/svg" width="32" height="32" viewBox="0 0 32 32"><path opacity="0.3" d="M8.7998 6.65752C8.7998 4.89021 7.36712 3.45752 5.5998 3.45752C3.83249 3.45752 2.3998 4.89021 2.3998 6.65752V25.8434C2.3998 27.6107 3.83249 29.0434 5.5998 29.0434H8.7998V6.65752Z" fill="#199AA2"></path><path d="M29.5998 6.64336C29.5998 4.87605 28.1671 3.44336 26.3998 3.44336H11.9998C10.2325 3.44336 8.7998 4.87605 8.7998 6.64336V29.0434H26.3998C28.1671 29.0434 29.5998 27.6107 29.5998 25.8434V6.64336Z" fill="#199AA2"></path><path fill-rule="evenodd" clip-rule="evenodd" d="M19.6124 10.1993C19.9576 10.5264 19.9632 11.0622 19.6249 11.3959L15.3374 15.6267C15.1729 15.7891 14.9476 15.8806 14.7125 15.8806C14.4774 15.8806 14.2521 15.7891 14.0876 15.6267L12.2501 13.8135C11.9118 13.4797 11.9174 12.944 12.2626 12.6169C12.6077 12.2898 13.1617 12.2952 13.4999 12.629L14.7125 13.8255L18.3751 10.2114C18.7133 9.87766 19.2673 9.87225 19.6124 10.1993Z" fill="white"></path><path d="M26 20.1114C26 20.5787 25.6082 20.9575 25.125 20.9575H12.875C12.3918 20.9575 12 20.5787 12 20.1114C12 19.644 12.3918 19.2652 12.875 19.2652H25.125C25.6082 19.2652 26 19.644 26 20.1114Z" fill="white"></path><path d="M26 23.8037C26 24.271 25.6082 24.6498 25.125 24.6498H12.875C12.3918 24.6498 12 24.271 12 23.8037C12 23.3364 12.3918 22.9575 12.875 22.9575H25.125C25.6082 22.9575 26 23.3364 26 23.8037Z" fill="white"></path></svg>