<svg width="54" height="28" viewBox="0 0 54 28" fill="none" xmlns="http://www.w3.org/2000/svg">
<path d="M5.90787 11.387C5.90787 11.9218 5.75862 12.4446 5.479 12.8893C5.19938 13.334 4.80195 13.6806 4.33695 13.8853C3.87196 14.0899 3.36029 14.1435 2.86666 14.0391C2.37302 13.9348 1.91959 13.6773 1.5637 13.2991C1.20781 12.9209 0.965448 12.4391 0.867258 11.9145C0.769068 11.39 0.819459 10.8463 1.01207 10.3522C1.20467 9.85804 1.53085 9.43572 1.94933 9.13859C2.36781 8.84146 2.85981 8.68286 3.36311 8.68286C4.03802 8.68286 4.6853 8.96776 5.16253 9.47488C5.63976 9.982 5.90787 10.6698 5.90787 11.387Z" fill="#D3D8FF"/>
<path d="M15.3026 14.0911C16.708 14.0911 17.8473 12.8804 17.8473 11.387C17.8473 9.89353 16.708 8.68286 15.3026 8.68286C13.8971 8.68286 12.7578 9.89353 12.7578 11.387C12.7578 12.8804 13.8971 14.0911 15.3026 14.0911Z" fill="#D3D8FF"/>
<path d="M27.2479 14.0911C28.6533 14.0911 29.7926 12.8804 29.7926 11.387C29.7926 9.89353 28.6533 8.68286 27.2479 8.68286C25.8425 8.68286 24.7031 9.89353 24.7031 11.387C24.7031 12.8804 25.8425 14.0911 27.2479 14.0911Z" fill="#D3D8FF"/>
<path d="M39.1952 14.0911C40.6006 14.0911 41.7399 12.8804 41.7399 11.387C41.7399 9.89353 40.6006 8.68286 39.1952 8.68286C37.7897 8.68286 36.6504 9.89353 36.6504 11.387C36.6504 12.8804 37.7897 14.0911 39.1952 14.0911Z" fill="#D3D8FF"/>
<path d="M53.6793 11.387C53.6793 11.9218 53.53 12.4446 53.2504 12.8893C52.9708 13.334 52.5734 13.6806 52.1084 13.8853C51.6434 14.0899 51.1317 14.1435 50.6381 14.0391C50.1444 13.9348 49.691 13.6773 49.3351 13.2991C48.9792 12.9209 48.7369 12.4391 48.6387 11.9145C48.5405 11.39 48.5909 10.8463 48.7835 10.3522C48.9761 9.85804 49.3023 9.43572 49.7207 9.13859C50.1392 8.84146 50.6312 8.68286 51.1345 8.68286C51.8094 8.68286 52.4567 8.96776 52.9339 9.47488C53.4112 9.982 53.6793 10.6698 53.6793 11.387Z" fill="#D3D8FF"/>
<path d="M5.90787 24.9241C5.90787 25.4589 5.75862 25.9817 5.479 26.4264C5.19938 26.8711 4.80195 27.2177 4.33695 27.4224C3.87196 27.6271 3.36029 27.6806 2.86666 27.5763C2.37302 27.4719 1.91959 27.2144 1.5637 26.8362C1.20781 26.458 0.965448 25.9762 0.867258 25.4516C0.769068 24.9271 0.819459 24.3834 1.01207 23.8893C1.20467 23.3952 1.53085 22.9728 1.94933 22.6757C2.36781 22.3786 2.85981 22.22 3.36311 22.22C4.03802 22.22 4.6853 22.5049 5.16253 23.012C5.63976 23.5191 5.90787 24.2069 5.90787 24.9241Z" fill="#D3D8FF"/>
<path d="M17.8473 24.9241C17.8473 25.4589 17.6981 25.9817 17.4185 26.4264C17.1388 26.8711 16.7414 27.2177 16.2764 27.4224C15.8114 27.6271 15.2997 27.6806 14.8061 27.5763C14.3125 27.4719 13.859 27.2144 13.5032 26.8362C13.1473 26.458 12.9049 25.9762 12.8067 25.4516C12.7085 24.9271 12.7589 24.3834 12.9515 23.8893C13.1441 23.3952 13.4703 22.9728 13.8888 22.6757C14.3073 22.3786 14.7993 22.22 15.3026 22.22C15.9775 22.22 16.6247 22.5049 17.102 23.012C17.5792 23.5191 17.8473 24.2069 17.8473 24.9241Z" fill="#D3D8FF"/>
<path d="M29.7926 24.9247C29.7911 25.4592 29.6405 25.9811 29.3599 26.4247C29.0793 26.8683 28.6813 27.2136 28.2162 27.417C27.7511 27.6204 27.2397 27.6727 26.7466 27.5674C26.2535 27.4621 25.8008 27.2039 25.4457 26.8254C25.0906 26.4469 24.849 25.9651 24.7514 25.4407C24.6539 24.9164 24.7047 24.3732 24.8976 23.8795C25.0904 23.3859 25.4166 22.9641 25.8349 22.6673C26.2532 22.3705 26.7449 22.2122 27.2479 22.2122C27.5827 22.2122 27.9143 22.2824 28.2235 22.4188C28.5328 22.5552 28.8137 22.7552 29.0501 23.0072C29.2865 23.2592 29.4738 23.5582 29.6012 23.8873C29.7286 24.2163 29.7937 24.5689 29.7926 24.9247Z" fill="#D3D8FF"/>
<path d="M41.7321 24.9241C41.7321 25.4593 41.5826 25.9824 41.3027 26.4273C41.0227 26.8722 40.6248 27.2188 40.1593 27.4232C39.6939 27.6276 39.1818 27.6807 38.688 27.5756C38.1941 27.4706 37.7407 27.2122 37.3851 26.8332C37.0295 26.4542 36.7878 25.9716 36.6905 25.4465C36.5932 24.9214 36.6448 24.3774 36.8386 23.8834C37.0324 23.3895 37.3598 22.9677 37.7793 22.6716C38.1988 22.3755 38.6916 22.2183 39.1953 22.22C39.8688 22.2222 40.514 22.5081 40.9895 23.015C41.4651 23.5219 41.7321 24.2084 41.7321 24.9241Z" fill="#D3D8FF"/>
<path d="M53.6793 24.9241C53.6793 25.4589 53.5301 25.9817 53.2505 26.4264C52.9709 26.8711 52.5734 27.2177 52.1084 27.4224C51.6434 27.6271 51.1318 27.6806 50.6381 27.5763C50.1445 27.4719 49.6911 27.2144 49.3352 26.8362C48.9793 26.458 48.7369 25.9762 48.6387 25.4516C48.5406 24.9271 48.5909 24.3834 48.7835 23.8893C48.9761 23.3952 49.3023 22.9728 49.7208 22.6757C50.1393 22.3786 50.6313 22.22 51.1346 22.22C51.8095 22.22 52.4568 22.5049 52.934 23.012C53.4112 23.5191 53.6793 24.2069 53.6793 24.9241Z" fill="#D3D8FF"/>
<path d="M5.90787 -0.760471C5.90787 -0.225646 5.75862 0.297173 5.479 0.741864C5.19938 1.18655 4.80195 1.53314 4.33695 1.73781C3.87196 1.94248 3.36029 1.99603 2.86666 1.89169C2.37302 1.78735 1.91959 1.52981 1.5637 1.15163C1.20781 0.773448 0.965448 0.291622 0.867258 -0.232926C0.769068 -0.757475 0.819459 -1.30118 1.01207 -1.79529C1.20467 -2.2894 1.53085 -2.71174 1.94933 -3.00887C2.36781 -3.306 2.85981 -3.4646 3.36311 -3.4646C4.03802 -3.4646 4.6853 -3.1797 5.16253 -2.67258C5.63976 -2.16546 5.90787 -1.47765 5.90787 -0.760471Z" fill="#D3D8FF"/>
<path d="M17.8473 -0.760715C17.8473 -0.22589 17.6981 0.296929 17.4185 0.74162C17.1388 1.18631 16.7414 1.5329 16.2764 1.73757C15.8114 1.94224 15.2997 1.99578 14.8061 1.89144C14.3125 1.78711 13.859 1.52956 13.5032 1.15138C13.1473 0.773204 12.9049 0.291378 12.8067 -0.233171C12.7085 -0.757719 12.7589 -1.30142 12.9515 -1.79553C13.1441 -2.28965 13.4703 -2.71198 13.8888 -3.00911C14.3073 -3.30625 14.7993 -3.46484 15.3026 -3.46484C15.9775 -3.46484 16.6247 -3.17995 17.102 -2.67283C17.5792 -2.1657 17.8473 -1.47789 17.8473 -0.760715Z" fill="#D3D8FF"/>
<path d="M29.7926 -0.760108C29.7911 -0.225645 29.6405 0.296332 29.3599 0.739913C29.0793 1.18349 28.6813 1.52878 28.2162 1.73216C27.7511 1.93554 27.2397 1.98789 26.7466 1.8826C26.2535 1.77731 25.8008 1.5191 25.4457 1.14059C25.0906 0.762076 24.849 0.280236 24.7514 -0.244081C24.6539 -0.768398 24.7047 -1.31166 24.8976 -1.80529C25.0904 -2.29891 25.4166 -2.72074 25.8349 -3.01751C26.2532 -3.31427 26.7449 -3.47265 27.2479 -3.47266C27.5827 -3.47266 27.9143 -3.40244 28.2235 -3.26601C28.5328 -3.12959 28.8137 -2.92965 29.0501 -2.67766C29.2865 -2.42566 29.4738 -2.12658 29.6012 -1.79752C29.7286 -1.46847 29.7937 -1.11593 29.7926 -0.760108Z" fill="#D3D8FF"/>
<path d="M41.7321 -0.760702C41.7321 -0.225519 41.5826 0.297623 41.3027 0.742494C41.0227 1.18737 40.6248 1.53396 40.1593 1.73838C39.6939 1.9428 39.1818 1.99585 38.688 1.89083C38.1941 1.7858 37.7407 1.52742 37.3851 1.1484C37.0295 0.769379 36.7878 0.286765 36.6905 -0.238338C36.5932 -0.76344 36.6448 -1.30742 36.8386 -1.80138C37.0324 -2.29535 37.3598 -2.71708 37.7793 -3.0132C38.1988 -3.30932 38.6916 -3.4665 39.1953 -3.46483C39.8688 -3.4626 40.514 -3.17671 40.9895 -2.66983C41.4651 -2.16295 41.7321 -1.47642 41.7321 -0.760702Z" fill="#D3D8FF"/>
<path d="M53.6793 -0.760471C53.6793 -0.225646 53.53 0.297173 53.2504 0.741864C52.9708 1.18655 52.5734 1.53314 52.1084 1.73781C51.6434 1.94248 51.1317 1.99603 50.6381 1.89169C50.1444 1.78735 49.691 1.52981 49.3351 1.15163C48.9792 0.773448 48.7369 0.291622 48.6387 -0.232926C48.5405 -0.757475 48.5909 -1.30118 48.7835 -1.79529C48.9761 -2.2894 49.3023 -2.71174 49.7207 -3.00887C50.1392 -3.306 50.6312 -3.4646 51.1345 -3.4646C51.8094 -3.4646 52.4567 -3.1797 52.9339 -2.67258C53.4112 -2.16546 53.6793 -1.47765 53.6793 -0.760471Z" fill="#D3D8FF"/>
</svg>
