<svg class="css-a1vwta" fill="none" xmlns="http://www.w3.org/2000/svg" width="32" height="32" viewBox="0 0 32 32"><path opacity="0.3" d="M8.7998 7.2002H5.59981C3.8325 7.2002 2.3998 8.63288 2.3998 10.4002V25.6002C2.3998 27.3675 3.83249 28.8002 5.5998 28.8002H8.7998V7.2002Z" fill="#46BBE7"></path><path d="M29.5998 6.4002C29.5998 4.63288 28.1671 3.2002 26.3998 3.2002H11.9998C10.2325 3.2002 8.7998 4.63288 8.7998 6.4002V28.8002H26.3998C28.1671 28.8002 29.5998 27.3675 29.5998 25.6002V6.4002Z" fill="#46BBE7"></path><path d="M25.5998 20.7999C25.5998 21.2417 25.2416 21.5999 24.7998 21.5999H13.5998C13.158 21.5999 12.7998 21.2417 12.7998 20.7999C12.7998 20.3581 13.158 19.9999 13.5998 19.9999H24.7998C25.2416 19.9999 25.5998 20.3581 25.5998 20.7999Z" fill="white"></path><path d="M24.7998 13.1997C24.7998 12.8315 24.5013 12.5331 24.1331 12.5331H21.4665C21.0983 12.5331 20.7998 12.8315 20.7998 13.1997C20.7998 13.5679 21.0983 13.8664 21.4665 13.8664H24.1331C24.5013 13.8664 24.7998 13.5679 24.7998 13.1997Z" fill="white"></path><path d="M22.7998 15.1999C23.168 15.1999 23.4665 14.9014 23.4665 14.5332V11.8666C23.4665 11.4984 23.168 11.1999 22.7998 11.1999C22.4316 11.1999 22.1331 11.4984 22.1331 11.8666V14.5332C22.1331 14.9014 22.4316 15.1999 22.7998 15.1999Z" fill="white"></path><path d="M13.9985 16.5948C13.8073 17.0769 14.1625 17.5999 14.6811 17.5999C14.9902 17.5999 15.2663 17.4062 15.3715 17.1155L15.7175 16.1599H18.6713L19.0259 17.1195C19.1326 17.4082 19.4078 17.5999 19.7156 17.5999C20.2353 17.5999 20.591 17.0754 20.3987 16.5926L18.1855 11.0344C18.0329 10.6513 17.6622 10.3999 17.2499 10.3999H17.1399C16.727 10.3999 16.356 10.6519 16.2037 11.0356L13.9985 16.5948ZM16.1518 14.943L17.1798 12.134C17.182 12.1279 17.1879 12.1238 17.1944 12.1238C17.2009 12.1238 17.2067 12.1279 17.209 12.134L18.2369 14.943H16.1518Z" fill="white"></path></svg>